<svg width="23" height="28" viewBox="0 0 23 28" fill="none" xmlns="http://www.w3.org/2000/svg">
<path fill-rule="evenodd" clip-rule="evenodd" d="M14.5012 10.2168C15.3133 9.81367 16.3464 9.22009 17.381 8.40673C17.599 8.85781 17.6231 9.25141 17.5105 9.56911C17.4308 9.79309 17.2807 9.98791 17.0836 10.1429C16.87 10.3103 16.603 10.4324 16.3081 10.4983C15.7484 10.6238 15.0947 10.5506 14.5012 10.2168ZM14.642 14.348L15.7169 14.9663C13.5221 16.1914 12.9253 18.466 12.2164 20.6813C11.5078 18.466 10.911 16.1911 8.71625 14.9663L9.79115 14.348C10.0045 14.2677 10.1416 14.0599 10.1308 13.833C10.0322 11.7581 10.5949 10.8404 11.3539 10.2645C11.626 10.0582 11.9232 9.95461 12.2164 9.95461C12.5097 9.95461 12.8069 10.0582 13.079 10.2645C13.8377 10.8407 14.4004 11.7581 14.3021 13.833C14.2912 14.0599 14.4289 14.2677 14.642 14.348ZM12.2167 0.800049C13.4592 0.833337 14.7049 1.07345 15.7859 1.54072C16.5347 1.86479 17.233 2.29264 17.8657 2.80446C18.1513 3.03552 18.3865 3.25875 18.6456 3.51576C19.3444 3.53974 20.3657 2.76676 20.8399 2.04347C20.0238 4.70729 16.3004 7.85281 13.7227 9.05659C13.7217 9.05611 13.721 9.05563 13.7203 9.05509C13.2577 8.70337 12.7373 8.52739 12.217 8.52739C11.6966 8.52739 11.1762 8.70337 10.7136 9.05509C10.7129 9.05563 10.7122 9.05635 10.7111 9.05659C8.13293 7.85281 4.40981 4.70704 3.59375 2.04347C4.0679 2.76676 5.08895 3.53998 5.78777 3.51576C6.04685 3.25899 6.28205 3.03552 6.56771 2.80446C7.20011 2.29264 7.89869 1.86479 8.64743 1.54072C9.72869 1.07345 10.9742 0.833337 12.2167 0.800049ZM9.93221 10.2168C9.12035 9.81367 8.08697 9.22009 7.05239 8.40673C6.83441 8.85781 6.81029 9.25141 6.92261 9.56911C7.00229 9.79309 7.15247 9.98791 7.34957 10.1429C7.56341 10.3103 7.83035 10.4324 8.12531 10.4983C8.68499 10.6238 9.33887 10.5506 9.93221 10.2168Z" fill="black"/>
<path fill-rule="evenodd" clip-rule="evenodd" d="M18.0446 7.41104C18.6141 6.83876 19.116 6.2053 19.5194 5.63989L19.7244 6.02393C20.3841 7.33832 20.727 8.64758 20.727 10.1209L20.7256 12.4589L20.7378 13.6707C20.7855 16.6462 21.4322 19.6563 22.8967 22.4112L19.8325 19.9508L17.6646 23.4541L15.387 21.319L11.7472 27.2008L8.10738 21.3193L5.82978 23.4544L3.66181 19.951L0.597656 22.4115C2.06214 19.6566 2.70859 16.6462 2.75652 13.671L2.76881 12.4591L2.76734 10.1211C2.76734 8.64758 3.10998 7.33856 3.76996 6.02417L3.97471 5.64013C4.37832 6.2053 4.87998 6.83876 5.4495 7.41128L5.27154 7.77914C4.92594 8.49362 4.81164 9.29258 5.0808 10.0526C5.25438 10.5419 5.57094 10.9617 5.97924 11.2821C6.37572 11.5932 6.84492 11.8029 7.33602 11.9131C7.65606 11.9848 7.98198 12.0144 8.30598 12.0043C8.2305 12.431 8.19731 12.8733 8.19533 13.3242L5.30496 14.9866L7.53539 16.2315C7.71359 16.3311 7.88346 16.4449 8.0427 16.5725C9.88151 18.2166 10.9871 23.0804 11.7469 25.4561C12.5067 23.0804 13.6123 18.2166 15.4511 16.5725C15.6104 16.4452 15.7803 16.3311 15.9585 16.2315L18.1889 14.9866L15.2985 13.3242C15.2963 12.8733 15.2633 12.431 15.1879 12.0043C15.5119 12.0144 15.8378 11.9848 16.1578 11.9131C16.6489 11.8029 17.1182 11.5932 17.5147 11.2821C17.9229 10.9617 18.2395 10.5419 18.413 10.0526C18.6822 9.29282 18.5679 8.49392 18.2223 7.77914L18.0446 7.41104Z" fill="black"/>
</svg>
